<svg height="512pt" viewBox="0 -48 512.00002 512" width="512pt" xmlns="http://www.w3.org/2000/svg"><path d="m207.800781 272.066406h-80.332031c-8.285156 0-15-6.714844-15-15v-33.199218c0-8.285157 6.714844-15 15-15h80.332031c8.285157 0 15 6.714843 15 15v33.199218c0 8.285156-6.714843 15-15 15zm0 0" fill="#99e1ff"/><path d="m207.800781 208.867188h-40.167969v63.199218h40.167969c8.285157 0 15-6.714844 15-15v-33.199218c0-8.285157-6.714843-15-15-15zm0 0" fill="#00b4ff"/><path d="m320.265625 238.867188h-305.265625c-8.285156 0-15-6.71875-15-15v-208.867188c0-8.285156 6.714844-15 15-15h305.265625c8.285156 0 15 6.714844 15 15v208.867188c0 8.285156-6.714844 15-15 15zm0 0" fill="#0064ff"/><path d="m320.265625 0h-152.632813v238.867188h152.632813c8.285156 0 15-6.71875 15-15v-208.867188c0-8.285156-6.714844-15-15-15zm0 0" fill="#003280"/><path d="m497 287.066406h-128.53125c-8.285156 0-15-6.714844-15-15v-257.066406c0-8.285156 6.714844-15 15-15h128.53125c8.285156 0 15 6.714844 15 15v257.066406c0 8.285156-6.714844 15-15 15zm0 0" fill="#00b4ff"/><path d="m320.257812 415.601562h-305.246093c-10.597657 0-17.863281-10.726562-13.925781-20.574218l32.132812-80.332032c2.277344-5.691406 7.792969-9.429687 13.925781-9.429687h240.980469c6.132812 0 11.648438 3.734375 13.925781 9.429687l32.132813 80.332032c3.933594 9.84375-3.324219 20.574218-13.925782 20.574218zm0 0" fill="#0064ff"/><path d="m239.933594 287.066406h-144.601563c-8.28125 0-15-6.714844-15-15s6.71875-15 15-15h144.601563c8.285156 0 15 6.714844 15 15s-6.714844 15-15 15zm0 0" fill="#00b4ff"/><path d="m448.800781 415.601562c-28.21875 0-59.035156-21.785156-70.160156-49.597656-6.328125-15.824218-5.390625-31.648437 2.578125-43.417968 7.453125-11.007813 20.371094-17.320313 35.449219-17.320313 28.21875 0 59.035156 21.785156 70.160156 49.597656 6.328125 15.824219 5.386719 31.648438-2.582031 43.417969-7.449219 11.003906-20.371094 17.320312-35.445313 17.320312zm0 0" fill="#0064ff"/><path d="m30 30h275.265625v145.664062h-275.265625zm0 0" fill="#edf6ff"/><path d="m353.46875 64.265625h158.53125v30h-158.53125zm0 0" fill="#0064ff"/><path d="m167.632812 30h137.632813v145.664062h-137.632813zm0 0" fill="#cde3ff"/><path d="m239.933594 257.066406h-72.300782v30h72.300782c8.285156 0 15-6.714844 15-15s-6.714844-15-15-15zm0 0" fill="#0064ff"/><path d="m302.050781 314.695312c-2.277343-5.691406-7.792969-9.429687-13.925781-9.429687h-120.492188v110.335937h152.621094c10.605469 0 17.863282-10.730468 13.925782-20.574218zm0 0" fill="#003280"/><path d="m497 0h-64.265625v287.066406h64.265625c8.285156 0 15-6.714844 15-15v-257.066406c0-8.285156-6.714844-15-15-15zm0 0" fill="#0064ff"/><path d="m432.734375 64.265625h79.265625v30h-79.265625zm0 0" fill="#003280"/><path d="m432.734375 307.480469v105.90625c5.347656 1.4375 10.75 2.214843 16.066406 2.214843 15.074219 0 27.996094-6.316406 35.445313-17.320312 7.96875-11.769531 8.910156-27.59375 2.578125-43.417969-9.027344-22.574219-31.03125-41.179687-54.089844-47.382812zm0 0" fill="#003280"/><path d="m447.734375 207.800781c0 8.285157-6.71875 15-15 15-8.285156 0-15-6.714843-15-15 0-8.285156 6.714844-15 15-15 8.28125 0 15 6.714844 15 15zm0 0" fill="#edf6ff" fill-rule="evenodd"/><path d="m447.734375 207.800781c0-8.28125-6.722656-15-15-15v30c8.277344 0 15-6.722656 15-15zm0 0" fill="#cde3ff"/></svg>